<svg width="148" height="49" viewBox="0 0 148 49" fill="none" xmlns="http://www.w3.org/2000/svg">
<path d="M16.6464 10.7897C12.6926 10.7897 9.8075 12.9269 8.73892 14.3694H8.63207V11.6446H0.0834961V48.4569H8.63207V36.2751H8.73892C9.8075 37.7177 12.6926 39.8549 16.6464 39.8549C23.9126 39.8549 28.5609 34.2983 28.5609 25.3223C28.5609 16.3463 23.9126 10.7897 16.6464 10.7897ZM14.4024 33.4434C10.9295 33.4434 8.79235 30.6651 8.79235 25.3223C8.79235 19.9794 10.9295 17.2011 14.4024 17.2011C17.8752 17.2011 20.0124 19.9794 20.0124 25.3223C20.0124 30.6651 17.8752 33.4434 14.4024 33.4434Z" fill="#1C1B1F"/>
<path d="M43.8306 33.4434C40.7852 33.4434 37.9535 31.4131 37.9535 27.5663H57.6152C57.6152 17.6286 52.8601 10.7897 43.5101 10.7897C34.8012 10.7897 29.4049 16.9874 29.4049 25.3223C29.4049 33.8709 34.9081 39.8549 43.9909 39.8549C51.4175 39.8549 55.6918 36.2217 57.1878 30.7186H48.6926C48.1584 32.0543 46.7692 33.4434 43.8306 33.4434ZM43.5101 16.6669C46.7692 16.6669 49.0666 18.5903 49.0666 22.3837H37.9535C37.9535 18.5903 40.2509 16.6669 43.5101 16.6669Z" fill="#1C1B1F"/>
<path d="M78.1623 0.798569V14.3694H78.0554C76.9868 12.9269 74.1017 10.7897 70.148 10.7897C62.8817 10.7897 58.2334 16.3463 58.2334 25.3223C58.2334 34.2983 62.8817 39.8549 70.148 39.8549C74.1017 39.8549 76.9868 37.7177 78.0554 36.2751H78.1623V39H86.7108V0.798569H78.1623ZM72.392 33.4434C68.9191 33.4434 66.782 30.6651 66.782 25.3223C66.782 19.9794 68.9191 17.2011 72.392 17.2011C75.8648 17.2011 78.002 19.9794 78.002 25.3223C78.002 30.6651 75.8648 33.4434 72.392 33.4434Z" fill="#1C1B1F"/>
<path d="M89.5964 0.798569V39H98.145V0.798569H89.5964Z" fill="#1C1B1F"/>
<path d="M117.445 19.2314C117.445 21.5289 113.972 22.0631 110.446 22.7577C104.035 24.04 100.027 26.5511 100.027 32.0009C100.027 36.5957 103.233 39.8549 109.003 39.8549C112.637 39.8549 115.842 38.1451 117.605 36.1149H117.712C117.712 38.0383 118.781 39.8549 122.628 39.8549C124.337 39.8549 125.887 39.6411 127.597 39V36.9697C126.528 36.9697 125.994 36.382 125.994 34.9394V22.3837C125.994 13.7817 121.719 10.7897 114.026 10.7897C105.103 10.7897 101.363 15.2243 101.096 20.4603H109.11C109.377 17.8423 110.873 16.6669 113.972 16.6669C116.323 16.6669 117.445 17.6286 117.445 19.2314ZM111.995 33.9777C109.912 33.9777 108.576 33.016 108.576 30.772C108.576 29.0623 109.698 27.6731 113.064 26.9251C115.041 26.4977 116.377 26.1237 117.445 25.6963V29.0089C117.445 31.6269 115.682 33.9777 111.995 33.9777Z" fill="#1C1B1F"/>
<path d="M145.107 11.1637C142.115 11.1637 139.764 13.0871 138.428 16.1326H138.322V11.6446H129.773V39H138.322V26.284C138.322 20.4603 142.97 18.056 147.351 18.8574H147.458V11.3774C146.496 11.1637 145.855 11.1637 145.107 11.1637Z" fill="#1C1B1F"/>
</svg>
