<svg width="25" height="24" viewBox="0 0 25 24"  fill="none" xmlns="http://www.w3.org/2000/svg">
<path d="M0.390137 3.75C0.390137 3.33579 0.725923 3 1.14014 3H3.39014C3.73429 3 4.03427 3.23422 4.11774 3.5681L4.72572 6H22.1401C22.3711 6 22.5892 6.1064 22.7313 6.28844C22.8734 6.47048 22.9238 6.70785 22.8677 6.9319L20.6177 15.9319C20.5343 16.2658 20.2343 16.5 19.8901 16.5H6.39014C6.04599 16.5 5.746 16.2658 5.66253 15.9319L2.80455 4.5H1.14014C0.725923 4.5 0.390137 4.16421 0.390137 3.75ZM5.10072 7.5L6.97572 15H19.3046L21.1796 7.5H5.10072ZM7.89014 19.5C7.06171 19.5 6.39014 20.1716 6.39014 21C6.39014 21.8284 7.06171 22.5 7.89014 22.5C8.71856 22.5 9.39014 21.8284 9.39014 21C9.39014 20.1716 8.71856 19.5 7.89014 19.5ZM4.89014 21C4.89014 19.3431 6.23328 18 7.89014 18C9.54699 18 10.8901 19.3431 10.8901 21C10.8901 22.6569 9.54699 24 7.89014 24C6.23328 24 4.89014 22.6569 4.89014 21ZM18.3901 19.5C17.5617 19.5 16.8901 20.1716 16.8901 21C16.8901 21.8284 17.5617 22.5 18.3901 22.5C19.2186 22.5 19.8901 21.8284 19.8901 21C19.8901 20.1716 19.2186 19.5 18.3901 19.5ZM15.3901 21C15.3901 19.3431 16.7333 18 18.3901 18C20.047 18 21.3901 19.3431 21.3901 21C21.3901 22.6569 20.047 24 18.3901 24C16.7333 24 15.3901 22.6569 15.3901 21Z" fill="#D8D8D8"    opacity="0.64"/>
</svg>
