<svg width="24" height="24" viewBox="0 0 24 24" fill="none" xmlns="http://www.w3.org/2000/svg">
<path fill-rule="evenodd" clip-rule="evenodd" d="M8.25 3C8.25 2.58579 8.58579 2.25 9 2.25H19C19.4142 2.25 19.75 2.58579 19.75 3V15C19.75 15.4142 19.4142 15.75 19 15.75H17V14.25H18.25V3.75H9.75V7H8.25V3ZM5 8.25C4.58579 8.25 4.25 8.58579 4.25 9V21C4.25 21.4142 4.58579 21.75 5 21.75H15C15.4142 21.75 15.75 21.4142 15.75 21V9C15.75 8.58579 15.4142 8.25 15 8.25H5ZM5.75 20.25V9.75H14.25V20.25H5.75Z" fill="#454545"/>
</svg>
