<svg width="24" height="18" viewBox="0 0 24 18" fill="none" xmlns="http://www.w3.org/2000/svg">
<path d="M15.75 9C15.75 11.0711 14.0711 12.75 12 12.75C9.92893 12.75 8.25 11.0711 8.25 9C8.25 6.92893 9.92893 5.25 12 5.25C14.0711 5.25 15.75 6.92893 15.75 9Z" fill="black"/>
<path d="M0 9C0 9 4.5 0.75 12 0.75C19.5 0.75 24 9 24 9C24 9 19.5 17.25 12 17.25C4.5 17.25 0 9 0 9ZM12 14.25C14.8995 14.25 17.25 11.8995 17.25 9C17.25 6.1005 14.8995 3.75 12 3.75C9.1005 3.75 6.75 6.1005 6.75 9C6.75 11.8995 9.1005 14.25 12 14.25Z" fill="black"/>
</svg>
