<svg width="19" height="18" viewBox="0 0 19 18" fill="none" xmlns="http://www.w3.org/2000/svg">
<path d="M9.50084 0C7.05657 0 6.74982 0.0106878 5.78981 0.0543757C4.83167 0.0982512 4.17766 0.24994 3.60541 0.472505C3.01346 0.702382 2.51133 1.00989 2.01108 1.51033C1.51045 2.01058 1.20294 2.51271 0.972317 3.10447C0.74919 3.67691 0.597313 4.33111 0.554188 5.28887C0.51125 6.24888 0.5 6.55582 0.5 9.00009C0.5 11.4444 0.510875 11.7502 0.554376 12.7102C0.598439 13.6683 0.750128 14.3223 0.972505 14.8946C1.20257 15.4865 1.51007 15.9887 2.01052 16.4889C2.51058 16.9896 3.01271 17.2978 3.60428 17.5277C4.17691 17.7502 4.83111 17.9019 5.78905 17.9458C6.74906 17.9895 7.05563 18.0002 9.49972 18.0002C11.9442 18.0002 12.25 17.9895 13.21 17.9458C14.1681 17.9019 14.8229 17.7502 15.3955 17.5277C15.9873 17.2978 16.4887 16.9896 16.9887 16.4889C17.4894 15.9887 17.7969 15.4865 18.0275 14.8948C18.2487 14.3223 18.4006 13.6681 18.4456 12.7104C18.4888 11.7504 18.5 11.4444 18.5 9.00009C18.5 6.55582 18.4888 6.24906 18.4456 5.28905C18.4006 4.33092 18.2487 3.67691 18.0275 3.10466C17.7969 2.51271 17.4894 2.01058 16.9887 1.51033C16.4881 1.0097 15.9875 0.702195 15.395 0.472505C14.8212 0.24994 14.1668 0.0982512 13.2087 0.0543757C12.2487 0.0106878 11.9431 0 9.49803 0H9.50084ZM8.69346 1.62189C8.93309 1.62152 9.20047 1.62189 9.50084 1.62189C11.9039 1.62189 12.1887 1.63052 13.1376 1.67364C14.0151 1.71377 14.4914 1.86039 14.8086 1.98358C15.2287 2.14671 15.5281 2.34171 15.8429 2.65671C16.1579 2.97172 16.3529 3.27172 16.5164 3.69173C16.6396 4.0086 16.7864 4.48486 16.8264 5.36237C16.8695 6.31113 16.8789 6.59613 16.8789 8.99803C16.8789 11.3999 16.8695 11.6849 16.8264 12.6337C16.7862 13.5112 16.6396 13.9875 16.5164 14.3043C16.3533 14.7243 16.1579 15.0234 15.8429 15.3382C15.5279 15.6532 15.2288 15.8482 14.8086 16.0114C14.4918 16.1351 14.0151 16.2814 13.1376 16.3215C12.1889 16.3646 11.9039 16.374 9.50084 16.374C7.09763 16.374 6.81282 16.3646 5.86406 16.3215C4.98655 16.281 4.51029 16.1344 4.19285 16.0112C3.77285 15.848 3.47284 15.653 3.15784 15.338C2.84284 15.023 2.64783 14.7238 2.48433 14.3036C2.36114 13.9867 2.21433 13.5105 2.17439 12.6329C2.13127 11.6842 2.12264 11.3992 2.12264 8.99578C2.12264 6.59238 2.13127 6.30888 2.17439 5.36012C2.21452 4.48261 2.36114 4.00635 2.48433 3.6891C2.64746 3.2691 2.84284 2.96909 3.15784 2.65409C3.47284 2.33909 3.77285 2.14408 4.19285 1.98058C4.5101 1.85683 4.98655 1.71058 5.86406 1.67027C6.69431 1.63277 7.01607 1.62152 8.69346 1.61964V1.62189ZM14.305 3.11628C13.7088 3.11628 13.225 3.59947 13.225 4.19592C13.225 4.79217 13.7088 5.27593 14.305 5.27593C14.9013 5.27593 15.385 4.79217 15.385 4.19592C15.385 3.59966 14.9013 3.11591 14.305 3.11591V3.11628ZM9.50084 4.37817C6.94838 4.37817 4.87892 6.44763 4.87892 9.00009C4.87892 11.5526 6.94838 13.6211 9.50084 13.6211C12.0533 13.6211 14.122 11.5526 14.122 9.00009C14.122 6.44763 12.0531 4.37817 9.50066 4.37817H9.50084ZM9.50084 6.00006C11.1576 6.00006 12.5009 7.34314 12.5009 9.00009C12.5009 10.6569 11.1576 12.0001 9.50084 12.0001C7.84389 12.0001 6.50081 10.6569 6.50081 9.00009C6.50081 7.34314 7.84389 6.00006 9.50084 6.00006Z" fill="white"/>
</svg>
